<?xml version="1.0" encoding="UTF-8"?>
<svg id="Ebene_1" xmlns="http://www.w3.org/2000/svg" version="1.1" viewBox="0 0 213.5 262.5">
  <!-- Generator: Adobe Illustrator 30.0.0, SVG Export Plug-In . SVG Version: 2.1.1 Build 123)  -->
  <defs>
    <style>
      .st0 {
        fill: #810012;
      }

      .st1 {
        fill: #f5f5f5;
      }
    </style>
  </defs>
  <path class="st0" d="M27.1,0C12.2,0,0,12.2,0,27.1v208.3c0,14.9,12.2,27.1,27.1,27.1h159.3c14.9,0,27.1-12.2,27.1-27.1V64.1s.4-5-1.8-9.9c-2-4.6-5.4-7.8-5.4-7.8h0L166.8,7.7h0s-3.4-3.2-8.4-5.4C152.5-.3,146.4,0,146.4,0,146.4,0,27.1,0,27.1,0Z"/>
  <path class="st1" d="M27.1,8.9h119.4s4.8,0,8.3,1.5c3.4,1.4,5.7,3.6,5.8,3.6h0l39.4,38.7s2.4,2.5,3.5,5.1c.9,2.1,1,5.9,1,5.9v171.6c0,10.2-8,18.2-18.2,18.2H27.1c-10.2,0-18.2-8-18.2-18.2V27.1c0-10.2,8-18.2,18.2-18.2h0Z"/>
  <path d="M76,229.3h20.5v5.4h-28.6v-4.4l19.9-28.6h-19.7v-5.4h27.8v4.2s-19.9,28.8-19.9,28.8Z"/>
  <path d="M110.3,234.7h-6.6v-38.4h6.6v38.4h0Z"/>
  <path d="M126.2,220.5v14.2h-6.7v-38.4h14.7c4.3,0,7.7,1.1,10.2,3.4,2.5,2.2,3.8,5.2,3.8,8.9s-1.2,6.7-3.7,8.8-5.9,3.1-10.4,3.1h-7.9ZM126.2,215.1h8c2.4,0,4.2-.6,5.4-1.7s1.9-2.7,1.9-4.8-.6-3.7-1.9-5c-1.3-1.2-3-1.9-5.2-1.9h-8.2v13.4Z"/>
  <polygon class="st0" points="129.9 89.8 120.6 97.6 92.9 97.6 83.5 89.8 83.5 51.2 129.9 51.2 129.9 89.8"/>
  <path d="M96.3,27.8h0c2.1-.6,3.2-2.8,2.6-4.9s-2.8-3.2-4.9-2.6l-14.7,4.6h0c-2.1.6-3.2,2.8-2.6,4.9s2.8,3.2,4.9,2.6c0,0,14.7-4.6,14.7-4.6Z"/>
  <path d="M100.9,42.5c2.1-.6,3.2-2.8,2.6-4.9s-2.8-3.2-4.9-2.6l-14.7,4.6h0c-2.1.6-3.2,2.8-2.6,4.9s2.8,3.2,4.9,2.6l14.7-4.6h0Z"/>
  <path d="M134.2,25.1l-14.7-4.6h0c-2.1-.6-4.3.5-4.9,2.6s.5,4.3,2.6,4.9l14.7,4.6h0c2.1.6,4.3-.5,4.9-2.6.6-2.1-.5-4.3-2.6-4.9h0Z"/>
  <path d="M129.5,39.8h0l-14.7-4.6h0c-2.1-.6-4.3.5-4.9,2.6s.5,4.3,2.6,4.9l14.7,4.6h0c2.1.6,4.3-.5,4.9-2.6s-.5-4.3-2.6-4.9h0Z"/>
  <path d="M99.7,177.3"/>
  <path d="M106.7,175h11.6c2.2,0,3.9-1.7,3.9-3.9s-1.7-3.9-3.9-3.9h-11.6c2.2,0,3.9-1.7,3.9-3.9s-1.7-3.9-3.9-3.9h11.6c2.2,0,3.9-1.7,3.9-3.9s-1.7-3.9-3.9-3.9h-11.6c2.2,0,3.9-1.7,3.9-3.9s-1.7-3.9-3.9-3.9h11.6c2.2,0,3.9-1.7,3.9-3.9s-1.7-3.9-3.9-3.9h-11.6c2.2,0,3.9-1.7,3.9-3.9s-1.7-3.9-3.9-3.9h-15.5c-2.2,0-3.9,1.7-3.9,3.9s1.7,3.9,3.9,3.9h11.6c-2.2,0-3.9,1.7-3.9,3.9s1.7,3.9,3.9,3.9h-11.6c-2.2,0-3.9,1.7-3.9,3.9s1.7,3.9,3.9,3.9h11.6c-2.2,0-3.9,1.7-3.9,3.9s1.7,3.9,3.9,3.9h-11.6c-2.2,0-3.9,1.7-3.9,3.9s1.7,3.9,3.9,3.9h11.6c-2.2,0-3.9,1.7-3.9,3.9s1.7,3.9,3.9,3.9"/>
  <path class="st0" d="M110.6,76v-5.5c0-2.2-1.7-3.9-3.9-3.9s-3.9,1.7-3.9,3.9v5.5c-7.2,5.5-15.5,24.2-15.5,33.1s8.6,19.3,19.3,19.3,19.3-8.6,19.3-19.3-8.2-27.6-15.5-33.1h.2ZM106.7,113c-2.2,0-3.9-1.7-3.9-3.9s1.7-3.9,3.9-3.9,3.9,1.7,3.9,3.9-1.7,3.9-3.9,3.9Z"/>
  <path d="M95.1,182.8h11.6c2.2,0,3.9-1.7,3.9-3.9s-1.7-3.9-3.9-3.9h-15.5c-2.2,0-3.9,1.7-3.9,3.9s1.7,3.9,3.9,3.9"/>
</svg>